<?xml version="1.0" encoding="UTF-8"?>
<svg id="Layer_2" data-name="Layer 2" xmlns="http://www.w3.org/2000/svg" viewBox="0 0 827.43 276.5">
  <defs>
    <style>
      .cls-1 {
        letter-spacing: 0em;
      }

      .cls-2 {
        letter-spacing: 0em;
      }

      .cls-3 {
        fill: none;
        stroke: #931c30;
        stroke-miterlimit: 10;
      }

      .cls-4 {
        font-family: MyriadPro-Regular, 'Myriad Pro';
        font-size: 54.28px;
      }

      .cls-5 {
        fill: #931c30;
      }

      .cls-6 {
        letter-spacing: 0em;
      }
    </style>
  </defs>
  <text class="cls-4" transform="translate(152.09 215.93) scale(1.1 1)"><tspan x="0" y="0">Blood </tspan><tspan class="cls-1" x="143.94" y="0">D</tspan><tspan x="180.3" y="0">on</tspan><tspan class="cls-2" x="240.23" y="0">a</tspan><tspan class="cls-6" x="266.17" y="0">tion</tspan></text>
  <path class="cls-5" d="M257,111.5s0-39-42-36c0,0,29-9,30-27,0,0,1-26-38.06-27.74h-50.32v2.09s11.38,3.65,8.38,13.65l.5,102.17s1.5,7.83-6.5,12.83h58.26s39.74-6,39.74-40ZM180,24.5h23.01c22.96,0,22.99,21.89,22.99,22,1,26-23.87,26.43-23.87,26.43h-22.13V24.5ZM210,149.5l-21-1c-9-1-9-8.26-9-8.26v-63.13h30.11c30.11,6.61,30.11,34.11,30.11,34.11-1.79,37.72-30.22,38.28-30.22,38.28Z"/>
  <path class="cls-5" d="M362,151.5s-12.5-4.5-10.5-14.5l-1-55s-2-25-32-25c0,0-32.21,1.22-38.1,20.1.69-.67,33.76-32.54,55.82.01l1.28,2.89,1.19,9.95-40,11s-28.19,10.05-28.19,30.05c0,0,2,24,26,23,0,0,27.48,4.61,40.24-40.7l1.76-5.58v43.78h23.5ZM321.5,135c-10,15-26.5,6.8-26.5,6.8-24.5-15.8-2.5-32.8-2.5-32.8,31-18,46.31-14.11,46-14-4,26-17,40-17,40Z"/>
  <path class="cls-3" d="M338.5,95c-4,26-17,40-17,40-10,15-26.5,6.8-26.5,6.8-24.5-15.8-2.5-32.8-2.5-32.8,31-18,46.31-14.11,46-14Z"/>
  <path class="cls-3" d="M338.5,95c-4,26-17,40-17,40-10,15-26.5,6.8-26.5,6.8-24.5-15.8-2.5-32.8-2.5-32.8,31-18,46.31-14.11,46-14Z"/>
  <path class="cls-5" d="M367.5,60h12.8v76.37s3.2,18.89,16.7,17.76c0,0,17.5,3.87,29.5-17.13,0,0-31,27-32-13l.41-64h28.17l-.52-3h-28.17l.11-23-27,26Z"/>
  <path class="cls-5" d="M434.5,10s8.65,2,6.33,14.5l.4,115.52s-.72,9.98-6.72,9.48v4.63h29.8v-4.63s-6.8,1.5-8.8-10.5l.46-61.89s13.54-15.11,35.54-14.11c0,0,17.48,2.26,19.24,23.13v49.2s2.76,13.67-8.24,15.67l30.15.5s-9.15-7.5-7.15-15.5l-.15-58.89s-9.67-23.11-30.26-20.11c0,0-20.59-2-39.59,17V0l-21,10Z"/>
  <path class="cls-5" d="M657.5,67l21.76-9.13v23.15s14.85-30.29,43.04-23.15c0,0,15.2,8.13-4.8,14.13,0,0-8.67.43-24.83-4.28,0,0-10.17,9.28-13.17,18.28v54s1,10,8,9v4h-30v-1.97s6,.97,8-13.03v-63s0-5-8-8Z"/>
  <path class="cls-5" d="M731.5,59h27.59s-6.59,4-2.59,11l28,64,27-63s3.61-6.85-5.2-10.42l.26-1.58h20.87v1.58s-10.93,2.42-13.93,15.42l-34.85,79.27s-19.15,44.73-53.15,30.73c0,0-6-10,9-12,0,0,8-2,22,4,0,0,11.75-3.93,19.37-26.97l-32.37-77.03s-4-12-12-12v-3Z"/>
  <path class="cls-5" d="M607.71,59.58c-25.94-5.6-52.33,8.06-59.92,34.41-7.59,26.35,6.93,53.66,32.43,61.01,25.5,7.35,49.2-9.18,59.92-34.41,11.54-27.18-2.61-54.57-32.43-61.01ZM620,144.5c-20.74,13.83-46.45,3.37-56-24-8.34-23.91-5.08-48.3,11.09-56.54,16.17-8.24,38.61,3.37,50.11,25.93s9.91,44.54-5.2,54.61Z"/>
  <path class="cls-5" d="M125.96,96.5h.04S68,17.5,68,17.5L19.66,88.58C7.5,101.1,0,118.17,0,137c0,38.38,31.12,69.5,69.5,69.5s69.5-31.12,69.5-69.5c0-15.12-4.84-29.1-13.04-40.5Z"/>
</svg>