<?xml version="1.0" encoding="UTF-8"?>
<svg id="Layer_1" data-name="Layer 1" xmlns="http://www.w3.org/2000/svg" viewBox="0 0 953.66 537.58">
  <defs>
    <style>
      .cls-1 {
        fill: #fff;
      }
    </style>
  </defs>
  <path class="cls-1" d="M723.16,190.91c-3.98,0-8.02.19-12,.62-3.92.37-7.77.99-11.63,1.8-3.79.81-7.59,1.74-11.26,2.92l-10.88,3.98-10.14,4.91-9.7,5.91-9.14,6.84-8.33,7.59-7.65,8.33-6.78,9.02-5.91,9.7-4.97,10.26c-1.49,3.54-2.86,7.15-3.98,10.76-1.18,3.67-2.11,7.46-2.92,11.26-.81,3.86-1.37,7.71-1.8,11.63-1.24,11.88-.62,23.88,1.8,35.57,1.55,7.52,3.86,14.92,6.9,22.01l4.97,10.26,5.91,9.7,6.78,9.08,7.59,8.33,8.33,7.59,9.08,6.78,9.7,5.91,10.26,4.97,10.76,3.98,11.26,2.92c11.69,2.43,23.69,2.98,35.63,1.8,3.92-.37,7.77-.99,11.63-1.8l11.26-2.92,10.76-3.98,10.26-4.97,9.7-5.91,9.02-6.78,8.39-7.59,7.59-8.33,6.78-9.02,5.91-9.7,4.97-10.26,3.98-10.76c1.18-3.67,2.11-7.46,2.92-11.26l1.8-11.63c.37-3.92.62-7.96.62-11.94s-.19-8.02-.62-12c-.44-3.92-.99-7.77-1.8-11.63-.75-3.79-1.74-7.52-2.92-11.26l-3.98-10.76-4.97-10.26-5.85-9.76-6.78-9.02-7.59-8.33-8.27-7.71-9.02-6.78-9.7-5.91-10.32-4.91-10.76-3.98-11.26-2.92-11.63-1.8c-3.98-.37-7.96-.56-12-.56h0ZM723.16,231.46c2.61,0,5.29.12,7.9.37l7.65,1.18,7.4,1.87,7.09,2.55,6.72,3.23,6.34,3.86,5.91,4.42,5.47,4.91,4.97,5.47,4.35,5.91,3.86,6.34,3.23,6.72c.99,2.3,1.8,4.66,2.55,7.09.75,2.43,1.37,4.85,1.87,7.4s.87,5.04,1.18,7.65l.37,7.9c0,2.67-.12,5.29-.37,7.9-.25,2.61-.62,5.16-1.18,7.65-.5,2.49-1.12,4.97-1.87,7.4l-2.55,7.09-3.23,6.72-3.79,6.4-4.35,5.91-4.97,5.47-5.47,4.91-5.91,4.35-6.34,3.86-6.72,3.23-7.09,2.55-7.4,1.87-7.71,1.18c-2.61.25-5.29.37-7.9.37s-5.29-.12-7.9-.37l-7.65-1.18c-2.49-.5-4.97-1.12-7.4-1.87l-7.09-2.55-6.72-3.23-6.34-3.86-5.91-4.35-5.47-4.91-4.97-5.47-4.35-5.91-3.86-6.34-3.3-6.72-2.55-7.09-1.87-7.4-1.18-7.65c-.25-2.61-.37-5.29-.37-7.9s.12-5.29.37-7.9.62-5.16,1.18-7.65c.5-2.49,1.12-4.97,1.93-7.4l2.55-7.09,3.23-6.72,3.86-6.34,4.35-5.91,4.91-5.47,5.47-4.97,5.91-4.35,6.28-3.79,6.72-3.23c2.3-.99,4.66-1.8,7.09-2.55l7.4-1.87c2.49-.5,5.1-.87,7.65-1.18,2.55-.25,5.29-.37,7.9-.37l.12-.12Z"/>
  <path class="cls-1" d="M845.58,157.52c-.93,0-1.87,0-2.8.12s-1.87.25-2.74.44c-.93.19-1.8.44-2.74.68-.87.25-1.74.62-2.61.99s-1.68.81-2.55,1.24c-.81.44-1.62.93-2.36,1.43s-1.49,1.12-2.24,1.74c-.68.62-1.43,1.24-2.05,1.93s-1.24,1.37-1.87,2.11c-.56.75-1.12,1.43-1.62,2.3-.5.81-.99,1.62-1.43,2.43s-.81,1.68-1.12,2.55c-.37.87-.62,1.74-.87,2.67-.25.87-.44,1.8-.62,2.74s-.25,1.87-.31,2.8v1.99c0,1.87.19,3.79.56,5.6.19.93.44,1.8.68,2.74.25.87.62,1.8.99,2.61.37.87.75,1.74,1.24,2.55.44.81.93,1.62,1.43,2.43.56.81,1.12,1.49,1.68,2.24.62.75,1.24,1.43,1.93,2.05.68.68,1.37,1.31,2.11,1.87s1.49,1.12,2.3,1.62c.81.5,1.62.99,2.43,1.43.87.44,1.68.81,2.55,1.12.87.31,1.74.62,2.67.87s1.8.44,2.74.62,1.87.25,2.8.37c.62,0,1.31.06,1.99.06.93,0,1.87,0,2.8-.12s1.87-.25,2.8-.44c.93-.19,1.8-.44,2.74-.68.87-.25,1.74-.62,2.61-.99,1.74-.75,3.36-1.62,4.91-2.67.75-.56,1.43-1.12,2.24-1.74.75-.62,1.37-1.24,2.05-1.93.62-.68,1.24-1.37,1.87-2.11,1.18-1.49,2.18-3.05,2.98-4.73.44-.81.81-1.68,1.12-2.55.37-.87.62-1.74.87-2.67s.44-1.8.62-2.74.25-1.87.31-2.8c0-.68.06-1.31.06-1.99,0-.93,0-1.87-.12-2.8-.06-.93-.25-1.87-.44-2.8-.19-.99-.44-1.87-.68-2.74-.81-2.67-2.05-5.22-3.67-7.59-.5-.81-1.12-1.55-1.68-2.24-.62-.68-1.24-1.43-1.93-2.05s-1.37-1.31-2.11-1.87-1.43-1.12-2.3-1.62c-.81-.5-1.62-.99-2.43-1.43-.81-.44-1.68-.81-2.55-1.12-.87-.37-1.74-.62-2.67-.87s-1.8-.44-2.74-.62-1.87-.25-2.8-.31c-.68-.12-1.37-.19-2.05-.12h0Z"/>
  <path class="cls-1" d="M700.9,78.55c-12.81,0-24.19,0-34.45.19l-27.55.75c-8.15.37-15.36.81-21.76,1.43-3.23.31-6.28.62-9.14.99s-5.47.75-8.21,1.24c-2.74.44-5.04.93-7.46,1.43-2.36.56-4.6,1.06-6.78,1.68s-4.23,1.24-6.34,1.93c-2.11.68-4.04,1.43-6.03,2.24-3.98,1.55-7.84,3.3-11.81,5.29-3.05,1.49-5.78,3.05-8.58,4.66-2.67,1.62-5.22,3.36-7.71,5.22-2.55,1.93-5.04,3.98-7.4,6.16-2.36,2.18-5.04,4.73-7.65,7.52-3.3,3.48-6.16,6.65-8.71,9.89-1.31,1.55-2.49,3.17-3.61,4.73s-2.18,3.17-3.17,4.79c-.99,1.62-1.93,3.23-2.92,4.91-.93,1.68-1.8,3.42-2.61,5.22-1.68,3.61-3.23,7.46-4.79,11.81-1.18,3.17-2.18,6.47-3.11,9.7-.93,3.3-1.74,6.84-2.49,10.63s-1.43,7.9-1.93,12.37c-.62,4.97-1.12,9.89-1.43,14.86-.44,5.47-.75,11.44-1.06,18.16l-.54,22.26-1,27.11,1,32.77v47.63l.6,36.07.75,14.12.93,11.69c.31,3.17.62,6.28,1.06,9.39.37,2.8.81,5.22,1.31,7.28.93,4.35,2.05,8.52,3.3,12.75s2.61,7.96,4.17,11.88c1.55,3.86,3.23,7.52,5.04,11.07s3.79,6.96,5.91,10.14c2.11,3.23,4.35,6.4,6.84,9.39,2.43,2.98,4.97,5.91,7.71,8.58,2.74,2.74,5.6,5.35,8.58,7.84,3.05,2.49,6.22,4.85,9.51,7.03,3.05,2.05,6.09,3.92,9.14,5.66s6.09,3.23,9.27,4.66,6.4,2.67,9.76,3.86c3.36,1.12,6.9,2.18,10.63,3.05s7.65,1.68,11.81,2.36,8.71,1.31,13.37,1.8c4.66.5,9.82.93,15.3,1.31,5.47.37,11.32.62,17.54.87,9.7.37,24.31.56,41.23-.33l54.72,1h51.8l19.71-1.48,12.81-.62c2.74-.25,5.47-.5,8.08-.81s5.16-.62,7.65-1.06,4.91-.87,7.34-1.37c2.36-.5,4.73-1.06,7.09-1.68,2.36-.62,4.6-1.24,6.9-1.99,2.3-.68,4.54-1.43,6.72-2.3,2.24-.87,4.48-1.74,6.65-2.67s4.41-1.93,6.65-2.98c3.42-1.62,6.16-2.98,8.58-4.35,2.3-1.24,4.48-2.61,6.53-4.17,2.24-1.68,4.41-3.48,6.47-5.41,2.36-2.18,5.04-4.79,8.33-8.08,2.92-2.92,5.35-5.41,7.46-7.71s3.92-4.35,5.47-6.34c1.49-1.87,2.86-3.86,4.17-5.91,1.24-1.99,2.36-4.04,3.54-6.34,1.74-3.42,3.3-6.65,4.73-9.7,1.43-3.11,2.61-5.97,3.73-9.02s2.05-6.16,2.92-9.27c.87-3.17,1.55-6.65,2.18-10.38s1.12-7.77,1.62-12.31c.44-4.54.87-9.58,1.18-15.17l.87-18.84.75-23.51.6-26.18,1-27.42v-53.85l-1.98-24.13-.87-20.71-1.12-16.17c-.44-4.48-.87-8.02-1.31-10.45-.5-2.61-1.06-5.29-1.74-7.9-.62-2.55-1.31-5.1-2.05-7.59s-1.43-4.91-2.36-7.28c-.93-2.36-1.74-4.73-2.67-6.96-.93-2.3-1.93-4.48-2.98-6.65s-2.18-4.35-3.3-6.4-2.36-4.1-3.61-6.09-2.55-3.92-3.92-5.78c-1.37-1.93-2.74-3.67-4.23-5.47-1.49-1.8-2.98-3.48-4.54-5.16s-3.17-3.3-4.85-4.85-3.42-3.11-5.16-4.54c-1.74-1.49-3.61-2.92-5.47-4.23s-3.86-2.67-5.78-3.98c-1.99-1.24-4.04-2.49-6.09-3.67s-4.23-2.3-6.4-3.36c-3.61-1.74-6.9-3.3-10.14-4.66s-6.47-2.55-9.82-3.67c-3.48-1.12-7.03-1.99-10.63-2.74-3.86-.75-8.02-1.43-12.75-1.99-4.73-.5-10.01-.99-16.04-1.43s-12.81-.62-20.58-.87l-26.37-.34h-76.05l.06-1.03ZM723.04,119.58l60.9.37,23.19.44c6.4.19,11.26.37,14.18.62,3.73.31,7.28.68,10.7,1.18,3.42.44,6.47.99,9.7,1.68s6.03,1.37,8.89,2.24c2.8.87,5.53,1.74,8.08,2.8,2.55.99,5.04,2.11,7.46,3.42,2.36,1.24,4.66,2.61,6.9,4.04,2.18,1.43,4.35,3.05,6.4,4.73,2.05,1.74,4.1,3.54,6.03,5.47,1.99,1.99,3.92,4.1,5.72,6.28,1.74,2.18,3.36,4.42,4.85,6.78,1.49,2.36,2.86,4.85,4.04,7.4,1.24,2.67,2.36,5.41,3.3,8.27.99,2.92,1.87,6.03,2.61,9.33s1.43,7.03,2.05,10.57,1.06,7.77,1.49,12.06.81,8.89,1.06,13.8c.25,3.92.44,9.14.62,15.3l.44,20.96,1,50.82v51.24l-.77,20.89-.62,15.17c-.44,7.09-.87,13.06-1.43,18.28-.25,2.61-.56,4.97-.87,7.28-.31,2.24-.68,4.29-1.06,6.4-.44,2.11-.87,3.86-1.31,5.78-.5,1.93-1.06,3.61-1.62,5.35-.62,1.74-1.31,3.54-1.99,5.29-.68,1.74-1.55,3.67-2.36,5.47s-1.55,3.17-2.36,4.73c-.81,1.49-1.68,2.98-2.61,4.48-.93,1.43-1.87,2.92-2.92,4.17-1.06,1.31-2.05,2.67-3.11,3.92-1.12,1.24-2.24,2.49-3.42,3.67s-2.43,2.36-3.67,3.42-2.55,2.18-3.92,3.17-2.8,1.99-4.23,2.92c-1.43.87-2.92,1.87-4.48,2.67s-3.17,1.68-4.79,2.49c-1.62.81-3.36,1.55-5.1,2.24s-3.54,1.43-5.35,1.99c-3.67,1.24-7.52,2.36-11.63,3.3-4.23.99-8.58,1.8-12.87,2.43-1.68.25-5.47.5-10.94.68l-20.89.02-59.2,1-61.93,1h-24.31l-15.79-1.34-11.63-.81c-3.61-.31-6.96-.62-10.14-1.06-3.17-.37-6.09-.81-8.83-1.31s-5.22-.99-7.77-1.62c-2.36-.56-4.66-1.24-6.96-1.99s-4.35-1.55-6.4-2.43-4.04-1.87-6.03-2.92-4.04-2.24-5.97-3.54c-1.43-.93-2.92-1.93-4.35-2.92-1.43-.99-2.74-2.05-4.04-3.11s-2.55-2.18-3.73-3.3-2.36-2.3-3.42-3.54-2.18-2.43-3.17-3.73-1.99-2.61-2.92-3.98-1.8-2.8-2.67-4.23c-.87-1.43-1.62-2.92-2.36-4.54s-1.43-3.17-2.18-4.85-1.31-3.36-1.93-5.16c-1.24-3.73-2.3-7.52-3.17-11.32-.93-4.04-1.68-8.27-2.36-12.87s-1.18-9.39-1.62-14.49c-.31-3.79-.56-9.64-1.77-17.1l1-26.43v-131.58l1.76-22.63.5-7.52c.12-1.43.31-2.92.56-4.35.62-2.92,1.24-5.66,1.87-8.21s1.24-4.79,1.93-7.15,1.43-4.35,2.18-6.28,1.55-3.79,2.49-5.66,1.87-3.48,2.92-5.16c1.06-1.68,2.18-3.3,3.42-4.91s2.55-3.23,3.98-4.85,2.98-3.23,4.66-4.91c1.93-1.93,3.98-3.79,6.09-5.66,2.18-1.87,4.23-3.42,6.22-4.79,2.11-1.43,4.29-2.8,6.59-3.98,2.3-1.24,4.66-2.3,7.09-3.3,2.49-.99,5.1-1.87,7.84-2.61,2.92-.81,5.78-1.43,8.83-2.11,2.98-.62,6.4-1.12,9.95-1.62,3.54-.44,7.28-.87,11.32-1.18,2.8-.25,7.65-.44,13.99-.62l23.13-1.33,61.06,1h0Z"/>
</svg>