<?xml version="1.0" encoding="UTF-8"?>
<svg id="Layer_2" data-name="Layer 2" xmlns="http://www.w3.org/2000/svg" viewBox="0 0 343 406.23">
  <defs>
    <style>
      .cls-1 {
        stroke: #000;
        stroke-miterlimit: 10;
        stroke-width: .25px;
      }

      .cls-2 {
        fill: #fff;
      }

      .cls-3 {
        fill: #e60312;
      }

      .cls-4 {
        fill: #ffb000;
      }
    </style>
  </defs>
  <g>
    <ellipse class="cls-2" cx="173" cy="168" rx="170" ry="168"/>
    <path class="cls-4" d="M279,301c-8.2,1.34-16.62,6.2-25.21,6.2-83.99,0-152.07-66.54-152.07-148.63,0-75.69,57.89-138.16,132.75-147.44C215.35,3.95,194.61,0,172.93,0,77.42,0,0,76.34,0,170.5c0,49.2,21.15,93.53,54.96,124.65v61.11s7.04,12.74,14.04-.26v-49.22c2.29,1.7,4.62,3.35,7,4.94v87.98s6,14.7,13,0v-80.1c24.85,13.63,53.47,21.4,83.93,21.4,39.98,0,76.79-17.54,106.07-40Z"/>
  </g>
  <g>
    <polygon points="134 73 134 78.78 140.2 78.78 140.2 98.74 145.67 98.74 145.67 78.78 151 79 151 73 134 73"/>
    <polygon points="153.7 73 153.7 98.74 159.96 98.74 159.96 87.98 171 88 171 98.74 176.78 98.74 176.78 73 170.33 73 170 82 159.5 82 159.37 73 153.7 73"/>
    <polygon points="182.46 73 182.5 98.5 199.09 98.5 199.09 93.46 187.5 93.46 187.5 90.5 199.09 90.5 199.09 84.85 187.5 84.85 187.5 79.5 199.09 79.5 199.09 73 182.46 73"/>
    <path class="cls-1" d="M152,247s5-1,5.1-6.41c0,0-1.1-5.59-7.32-5.59h-12.78v25.35h14s6-.35,6-7.35c0,0,.07-6.67-5-6ZM148.8,256h-5.8v-6h5.8c6.2,3-.33,5.84,0,6ZM148.8,245h-5.8v-6h5.8c6.2,3-.33,5.84,0,6Z"/>
    <rect class="cls-1" x="160.96" y="235" width="5.28" height="25.35"/>
    <line class="cls-1" x1="193.61" y1="235" x2="193.61" y2="260.35"/>
    <polygon points="171.37 234.76 171.37 240.54 177.57 240.54 177.57 260.5 183.04 260.5 183.04 240.54 188.37 240.76 188.37 234.76 171.37 234.76"/>
    <polygon points="193.55 234.88 193.6 260.38 210.18 260.38 210.18 255.34 198.6 255.34 198.6 252.38 210.18 252.38 210.18 246.73 198.6 246.73 198.6 241.38 210.18 241.38 210.18 234.88 193.55 234.88"/>
    <path d="M90,138s13.96-15,20.48,0l-18.48,53s-6,25,18,22c8-1,19-11.5,19-11.5v-14s-25,20.5-22.35,5.15l18.85-50.15s7-14-12-23c0,0-13-2.57-23.5,2.72,0,0,2.41-4.96-10.04-3.34l-31.46,84.62s0,15,13,7l28.5-72.5Z"/>
    <path class="cls-3" d="M149,123l-29,77s-4,10,3,14c0,0,8,4,12-6l28-79s3-11-5-11c0,0-6-2-9,5Z"/>
    <path d="M180,120s-10-2-12,7c0,0-.5,7.24,6,6.37l18.04.07-24.05,69.19s-2.84,8.37,2.33,10.62c0,0,9.09,3.64,12.13-4.55l26.04-75.2,22.5.07s5.5-.07,6.5-6.07c0,0,.35-8.38-10.83-7.69l-46.67.19Z"/>
    <path d="M265.5,131.5s8-2,11.5,7.5c0,0,0,6,6,5,0,0,7.24,1.13,6.87-5.68,0,0,.63-20.71-22.87-19.76,0,0-19.5-2.05-25.5,13.95,0,0-6,11.57,0,22.78,0,0,3,2.22,0,3.22,0,0-24.39,8.74-20.7,32.37,0,0,1.61,24.13,24.65,23.63h12.13s26.91,3,41.91-29c0,0,3-11-3-12,0,0-5-6-12,7,0,0-9,18-28,19,0,0-20,2-21-10,0,0-4-16,15-17,0,0,17,2,21-1,0,0,7-10-5-15,0,0-15,0-13-16,0,0,1-7,12-9Z"/>
  </g>
</svg>